<svg xmlns="http://www.w3.org/2000/svg" viewBox="0 0 1440 320">
  <path fill="#88b361" fill-opacity="0.5" d="M0,96L34.3,96C68.6,96,137,96,206,85.3C274.3,75,343,53,411,42.7C480,32,549,32,617,48C685.7,64,754,96,823,122.7C891.4,149,960,171,1029,149.3C1097.1,128,1166,64,1234,48C1302.9,32,1371,64,1406,80L1440,96L1440,320L1405.7,320C1371.4,320,1303,320,1234,320C1165.7,320,1097,320,1029,320C960,320,891,320,823,320C754.3,320,686,320,617,320C548.6,320,480,320,411,320C342.9,320,274,320,206,320C137.1,320,69,320,34,320L0,320Z"></path>
</svg>